<svg width="426" height="270" viewBox="0 0 426 270" fill="none" xmlns="http://www.w3.org/2000/svg">
<g filter="url(#filter0_d)">
<rect x="-145" y="-7" width="384.777" height="165.694" rx="10.9726" fill="white"/>
<rect x="-91.6097" y="48.2312" width="165.694" height="22.0925" rx="11.0462" fill="#EDEDED"/>
<rect x="-91.6097" y="88.7341" width="165.694" height="22.0925" rx="11.0462" fill="#EDEDED"/>
<rect x="93.4148" y="28.9003" width="101.257" height="57.0723" rx="10.1257" fill="#6CE2FF" fill-opacity="0.12" stroke="#6CE2FF" stroke-width="1.84104"/>
<rect x="101.699" y="39.026" width="84.1233" height="36.5753" rx="18.2877" fill="#4264D1"/>
<circle cx="166.05" cy="57.3137" r="12.8014" fill="white"/>
</g>
<circle cx="143.616" cy="241.616" r="27.6156" fill="url(#paint0_linear)"/>
<rect x="315" y="109" width="111" height="111" rx="55.4998" fill="white"/>
<path d="M408.947 169.585C408.344 169.666 407.724 169.715 407.089 169.715C401.27 169.715 396.349 165.902 394.654 160.654C394.36 159.757 393.627 159.057 392.698 158.894C383.033 157.052 375.732 148.577 375.732 138.375C375.732 134.088 377.019 130.112 379.236 126.803C379.757 126.021 379.317 124.962 378.388 124.782C375.83 124.261 373.206 124 370.5 124C348.14 124 330 142.139 330 164.5C330 186.861 348.14 205 370.5 205C390.661 205 407.333 190.332 410.462 171.052C410.609 170.172 409.81 169.455 408.947 169.585Z" fill="#4264D1"/>
<path d="M352.214 156.661C355.103 156.661 357.445 154.318 357.445 151.429C357.445 148.54 355.103 146.198 352.214 146.198C349.324 146.198 346.982 148.54 346.982 151.429C346.982 154.318 349.324 156.661 352.214 156.661Z" fill="#6CE2FF"/>
<path d="M354.821 181.482C356.982 181.482 358.733 179.731 358.733 177.571C358.733 175.411 356.982 173.659 354.821 173.659C352.661 173.659 350.91 175.411 350.91 177.571C350.91 179.731 352.661 181.482 354.821 181.482Z" fill="#6CE2FF"/>
<path d="M387.319 134.594L386.944 136.843C386.635 138.684 387.678 140.493 389.438 141.162L392.762 142.4C394.946 143.215 397.375 141.944 397.945 139.678L399.135 134.952C399.868 132.002 397.114 129.378 394.213 130.242L390.09 131.481C388.639 131.904 387.563 133.11 387.319 134.594Z" fill="#6CE2FF"/>
<path d="M400.553 148.822L398.972 149.604C397.733 150.223 397.196 151.706 397.733 152.977L399.005 155.944C399.771 157.736 402.166 158.079 403.421 156.579L405.458 154.135C406.42 152.977 406.208 151.266 405.018 150.37L403.291 149.066C402.492 148.479 401.433 148.381 400.553 148.822Z" fill="#6CE2FF"/>
<path d="M408.392 143.59C409.832 143.59 411 142.422 411 140.982C411 139.542 409.832 138.375 408.392 138.375C406.952 138.375 405.784 139.542 405.784 140.982C405.784 142.422 406.952 143.59 408.392 143.59Z" fill="#6CE2FF"/>
<path d="M375.406 200.094C353.045 200.094 334.906 181.955 334.906 159.594C334.906 149.653 338.491 140.559 344.424 133.518C335.606 140.95 330 152.065 330 164.5C330 186.861 348.139 205 370.5 205C382.935 205 394.05 199.41 401.466 190.593C394.425 196.525 385.331 200.094 375.406 200.094Z" fill="#4264D1"/>
<path d="M393.333 139.369C391.149 138.554 389.845 136.289 390.22 133.974L390.66 131.301L390.041 131.481C388.607 131.904 387.547 133.11 387.303 134.594L386.928 136.843C386.618 138.684 387.661 140.493 389.422 141.162L392.746 142.4C394.507 143.052 396.397 142.351 397.375 140.885L393.333 139.369Z" fill="#4264D1"/>
<path d="M401.792 154.249L400.357 150.891C400.08 150.256 400.064 149.588 400.227 148.968L398.972 149.604C397.733 150.223 397.196 151.706 397.733 152.977L399.005 155.944C399.771 157.736 402.166 158.079 403.421 156.579L403.927 155.976C403.03 155.797 402.199 155.21 401.792 154.249Z" fill="#4264D1"/>
<path d="M354.984 153.89C352.1 153.89 349.753 151.543 349.753 148.659C349.753 147.941 349.899 147.241 350.16 146.621C348.286 147.42 346.966 149.278 346.966 151.429C346.966 154.314 349.313 156.661 352.197 156.661C354.365 156.661 356.223 155.341 357.005 153.466C356.402 153.743 355.701 153.89 354.984 153.89Z" fill="white"/>
<path d="M356.859 179.445C354.691 179.445 352.947 177.685 352.947 175.534C352.947 174.979 353.061 174.458 353.273 173.985C351.888 174.588 350.91 175.974 350.91 177.587C350.91 179.755 352.67 181.499 354.821 181.499C356.435 181.499 357.82 180.521 358.423 179.135C357.934 179.331 357.413 179.445 356.859 179.445Z" fill="white"/>
<path d="M379.643 186.714C382.532 186.714 384.875 184.372 384.875 181.482C384.875 178.593 382.532 176.251 379.643 176.251C376.754 176.251 374.411 178.593 374.411 181.482C374.411 184.372 376.754 186.714 379.643 186.714Z" fill="#6CE2FF"/>
<path d="M382.414 183.927C379.529 183.927 377.182 181.58 377.182 178.695C377.182 177.978 377.329 177.277 377.589 176.658C375.715 177.457 374.395 179.315 374.395 181.466C374.395 184.351 376.742 186.698 379.627 186.698C381.794 186.698 383.652 185.377 384.434 183.503C383.831 183.78 383.147 183.927 382.414 183.927Z" fill="white"/>
<path d="M371.709 158.392C371.94 156.971 370.975 155.631 369.553 155.4C368.131 155.17 366.792 156.135 366.561 157.557C366.33 158.978 367.296 160.318 368.717 160.548C370.139 160.779 371.478 159.814 371.709 158.392Z" fill="#6CE2FF"/>
<path d="M394.018 177.473C394.197 177.473 394.392 177.424 394.555 177.343C395.158 177.033 395.403 176.3 395.109 175.697L393.806 173.089C393.496 172.486 392.763 172.241 392.16 172.535C391.557 172.844 391.312 173.578 391.605 174.181L392.909 176.789C393.137 177.229 393.561 177.473 394.018 177.473Z" fill="white"/>
<path d="M379.643 169.634C379.822 169.634 380.018 169.585 380.181 169.503L382.789 168.2C383.392 167.89 383.636 167.157 383.343 166.554C383.033 165.951 382.3 165.706 381.697 165.999L379.089 167.303C378.486 167.613 378.241 168.346 378.535 168.949C378.763 169.389 379.203 169.634 379.643 169.634Z" fill="white"/>
<path d="M343.283 166.358C343.495 166.782 343.935 167.026 344.375 167.026C344.554 167.026 344.75 166.977 344.913 166.896C345.516 166.586 345.76 165.853 345.467 165.25L344.163 162.642C343.853 162.039 343.12 161.795 342.517 162.088C341.914 162.398 341.669 163.131 341.963 163.734L343.283 166.358Z" fill="white"/>
<path d="M363.427 186.926L360.819 188.23C360.216 188.539 359.971 189.273 360.265 189.876C360.477 190.299 360.917 190.544 361.357 190.544C361.536 190.544 361.732 190.495 361.895 190.413L364.502 189.11C365.105 188.8 365.35 188.067 365.056 187.464C364.763 186.861 364.03 186.616 363.427 186.926Z" fill="white"/>
<path d="M364.828 137.511L363.524 136.207C363.052 135.734 362.269 135.734 361.797 136.207C361.324 136.68 361.324 137.462 361.797 137.935L363.101 139.238C363.345 139.483 363.655 139.597 363.964 139.597C364.274 139.597 364.584 139.483 364.828 139.238C365.317 138.766 365.317 137.983 364.828 137.511Z" fill="white"/>
<path d="M359.189 166.244C358.717 166.717 358.717 167.499 359.189 167.971L360.493 169.275C360.737 169.52 361.047 169.634 361.357 169.634C361.666 169.634 361.976 169.52 362.221 169.275C362.693 168.803 362.693 168.02 362.221 167.548L360.917 166.244C360.428 165.771 359.662 165.771 359.189 166.244Z" fill="white"/>
<path d="M374.509 194.553V195.857C374.509 196.525 375.063 197.079 375.732 197.079C376.4 197.079 376.954 196.525 376.954 195.857V194.553C376.954 193.885 376.4 193.331 375.732 193.331C375.063 193.331 374.509 193.869 374.509 194.553Z" fill="white"/>
<path d="M368.756 147.078L370.06 145.774C370.532 145.301 370.532 144.519 370.06 144.046C369.587 143.574 368.805 143.574 368.332 144.046L367.028 145.35C366.556 145.823 366.556 146.605 367.028 147.078C367.273 147.322 367.582 147.436 367.892 147.436C368.202 147.436 368.511 147.306 368.756 147.078Z" fill="white"/>
<defs>
<filter id="filter0_d" x="-181.821" y="-25.4104" width="458.419" height="239.335" filterUnits="userSpaceOnUse" color-interpolation-filters="sRGB">
<feFlood flood-opacity="0" result="BackgroundImageFix"/>
<feColorMatrix in="SourceAlpha" type="matrix" values="0 0 0 0 0 0 0 0 0 0 0 0 0 0 0 0 0 0 127 0"/>
<feOffset dy="18.4104"/>
<feGaussianBlur stdDeviation="18.4104"/>
<feColorMatrix type="matrix" values="0 0 0 0 0 0 0 0 0 0 0 0 0 0 0 0 0 0 0.06 0"/>
<feBlend mode="normal" in2="BackgroundImageFix" result="effect1_dropShadow"/>
<feBlend mode="normal" in="SourceGraphic" in2="effect1_dropShadow" result="shape"/>
</filter>
<linearGradient id="paint0_linear" x1="171.231" y1="223.205" x2="120.603" y2="264.629" gradientUnits="userSpaceOnUse">
<stop stop-color="#6CE2FF"/>
<stop offset="1" stop-color="#6CFFD5"/>
</linearGradient>
</defs>
</svg>
