<svg width="362" height="126" viewBox="0 0 362 126" fill="none" xmlns="http://www.w3.org/2000/svg">
<rect x="246.655" y="10.5001" width="113.39" height="113.39" rx="56.6952" fill="#6CE2FF" fill-opacity="0.12" stroke="#6CE2FF" stroke-width="3.91001"/>
<circle cx="303.35" cy="67.1953" r="39.1001" fill="white"/>
<path d="M305.075 66.4438L313.931 57.8938C314.507 57.3377 314.507 56.4385 313.931 55.8823C313.355 55.3262 312.423 55.3262 311.847 55.8823L302.991 64.4323L294.135 55.8823C293.559 55.3262 292.628 55.3262 292.052 55.8823C291.475 56.4385 291.475 57.3377 292.052 57.8938L300.908 66.4438L292.052 74.9938C291.475 75.5499 291.475 76.4491 292.052 77.0053C292.339 77.2827 292.716 77.4221 293.093 77.4221C293.471 77.4221 293.848 77.2827 294.135 77.0053L302.991 68.4553L311.847 77.0053C312.135 77.2827 312.512 77.4221 312.889 77.4221C313.266 77.4221 313.643 77.2827 313.931 77.0053C314.507 76.4491 314.507 75.5499 313.931 74.9938L305.075 66.4438Z" fill="black"/>
<g clip-path="url(#clip0)">
<rect width="215.451" height="74.2108" rx="4.78779" fill="#3652AB"/>
<path d="M0 4.78779C0 2.14357 2.14357 0 4.78779 0H210.663C213.307 0 215.451 2.14357 215.451 4.78779V28.9603H0V4.78779Z" fill="#15328D"/>
<path d="M28.3875 46.9293H25.5382V56.8047H23.843V46.9293H21.8413V46.1634L23.843 45.5506V44.9277C23.843 42.1771 25.0446 40.8018 27.448 40.8018C28.0403 40.8018 28.7347 40.921 29.5313 41.1593L29.0922 42.5175C28.4386 42.3065 27.8803 42.2009 27.4173 42.2009C26.7773 42.2009 26.3042 42.4154 25.9978 42.8443C25.6914 43.2664 25.5382 43.9473 25.5382 44.8868V45.6119H28.3875V46.9293ZM37.6502 53.7512C37.6502 54.7929 37.2621 55.5963 36.486 56.1614C35.7098 56.7265 34.6205 57.009 33.218 57.009C31.7338 57.009 30.5764 56.7741 29.7458 56.3043V54.7316C30.2836 55.004 30.8589 55.2184 31.4717 55.375C32.0912 55.5316 32.687 55.6099 33.2588 55.6099C34.1439 55.6099 34.8248 55.4703 35.3013 55.1912C35.7779 54.9052 36.0162 54.4729 36.0162 53.8942C36.0162 53.4585 35.8256 53.0874 35.4443 52.781C35.0699 52.4679 34.3346 52.1002 33.2384 51.6781C32.1968 51.29 31.4546 50.953 31.0121 50.6671C30.5764 50.3743 30.2496 50.0441 30.0317 49.6765C29.8207 49.3088 29.7151 48.8697 29.7151 48.3591C29.7151 47.4467 30.0862 46.7285 30.8283 46.2042C31.5704 45.6732 32.5882 45.4077 33.8818 45.4077C35.0869 45.4077 36.2647 45.6528 37.4153 46.1429L36.8128 47.5216C35.6894 47.0587 34.6716 46.8272 33.7593 46.8272C32.9559 46.8272 32.3499 46.9531 31.9414 47.205C31.5329 47.457 31.3287 47.8042 31.3287 48.2467C31.3287 48.5463 31.4036 48.8016 31.5534 49.0126C31.71 49.2237 31.9585 49.4245 32.2989 49.6152C32.6393 49.8058 33.2929 50.0816 34.2597 50.4424C35.5873 50.9258 36.4826 51.4126 36.9455 51.9028C37.4153 52.393 37.6502 53.0091 37.6502 53.7512ZM39.4782 51.9743V50.422H44.4925V51.9743H39.4782ZM51.6311 57.009C50.0107 57.009 48.7545 56.512 47.8627 55.518C46.9776 54.5172 46.535 53.1044 46.535 51.2798C46.535 49.4075 46.9844 47.9608 47.8831 46.9395C48.7886 45.9183 50.0754 45.4077 51.7434 45.4077C52.2812 45.4077 52.8191 45.4655 53.357 45.5813C53.8948 45.697 54.3169 45.8332 54.6233 45.9898L54.1025 47.4297C53.728 47.2799 53.3195 47.1574 52.877 47.0621C52.4344 46.9599 52.043 46.9089 51.7025 46.9089C49.4286 46.9089 48.2916 48.3591 48.2916 51.2594C48.2916 52.6347 48.5673 53.69 49.1188 54.4252C49.6771 55.1605 50.5009 55.5282 51.5902 55.5282C52.5229 55.5282 53.4795 55.3273 54.4599 54.9257V56.4269C53.711 56.815 52.768 57.009 51.6311 57.009ZM61.5984 57.009C59.978 57.009 58.7219 56.512 57.83 55.518C56.9449 54.5172 56.5024 53.1044 56.5024 51.2798C56.5024 49.4075 56.9517 47.9608 57.8504 46.9395C58.7559 45.9183 60.0427 45.4077 61.7107 45.4077C62.2486 45.4077 62.7865 45.4655 63.3243 45.5813C63.8622 45.697 64.2843 45.8332 64.5907 45.9898L64.0698 47.4297C63.6954 47.2799 63.2869 47.1574 62.8443 47.0621C62.4018 46.9599 62.0103 46.9089 61.6699 46.9089C59.3959 46.9089 58.2589 48.3591 58.2589 51.2594C58.2589 52.6347 58.5347 53.69 59.0861 54.4252C59.6444 55.1605 60.4682 55.5282 61.5576 55.5282C62.4903 55.5282 63.4469 55.3273 64.4273 54.9257V56.4269C63.6783 56.815 62.7354 57.009 61.5984 57.009ZM66.5106 48.0425V46.6434H76.0082V48.0425H66.5106ZM66.5106 52.2194V50.8203H76.0082V52.2194H66.5106ZM80.42 41.8741L80.5731 42.0988C80.3961 42.7796 80.1408 43.5728 79.8072 44.4783C79.4736 45.377 79.1264 46.2144 78.7655 46.9906H77.5196C77.9962 45.0502 78.3434 43.3447 78.5613 41.8741H80.42ZM84.1883 41.8741L84.3313 42.0988C84.1679 42.7184 83.9228 43.4809 83.596 44.3864C83.2692 45.2919 82.9152 46.16 82.5339 46.9906H81.2574C81.4344 46.3098 81.6352 45.4451 81.8599 44.3966C82.0846 43.3481 82.2412 42.5073 82.3297 41.8741H84.1883ZM90.8673 57.009C89.2469 57.009 87.9908 56.512 87.0989 55.518C86.2138 54.5172 85.7713 53.1044 85.7713 51.2798C85.7713 49.4075 86.2206 47.9608 87.1193 46.9395C88.0248 45.9183 89.3116 45.4077 90.9796 45.4077C91.5175 45.4077 92.0553 45.4655 92.5932 45.5813C93.1311 45.697 93.5532 45.8332 93.8595 45.9898L93.3387 47.4297C92.9642 47.2799 92.5558 47.1574 92.1132 47.0621C91.6707 46.9599 91.2792 46.9089 90.9388 46.9089C88.6648 46.9089 87.5278 48.3591 87.5278 51.2594C87.5278 52.6347 87.8036 53.69 88.355 54.4252C88.9133 55.1605 89.7371 55.5282 90.8264 55.5282C91.7592 55.5282 92.7157 55.3273 93.6961 54.9257V56.4269C92.9472 56.815 92.0043 57.009 90.8673 57.009ZM98.0569 56.8047H96.3616V40.9142H98.0569V56.8047ZM111.313 51.1981C111.313 53.0227 110.853 54.4491 109.934 55.4771C109.015 56.4984 107.745 57.009 106.125 57.009C105.124 57.009 104.235 56.7741 103.459 56.3043C102.683 55.8346 102.084 55.1605 101.662 54.2823C101.24 53.404 101.029 52.3759 101.029 51.1981C101.029 49.3735 101.485 47.954 102.397 46.9395C103.309 45.9183 104.576 45.4077 106.196 45.4077C107.762 45.4077 109.005 45.9285 109.924 46.9702C110.85 48.0118 111.313 49.4211 111.313 51.1981ZM102.785 51.1981C102.785 52.6279 103.071 53.7172 103.643 54.4661C104.215 55.215 105.056 55.5895 106.166 55.5895C107.275 55.5895 108.116 55.2184 108.688 54.4763C109.267 53.7274 109.556 52.6347 109.556 51.1981C109.556 49.7752 109.267 48.6961 108.688 47.9608C108.116 47.2187 107.268 46.8476 106.145 46.8476C105.035 46.8476 104.198 47.2119 103.633 47.9403C103.068 48.6688 102.785 49.7548 102.785 51.1981ZM121.515 53.7512C121.515 54.7929 121.127 55.5963 120.351 56.1614C119.574 56.7265 118.485 57.009 117.083 57.009C115.598 57.009 114.441 56.7741 113.61 56.3043V54.7316C114.148 55.004 114.724 55.2184 115.336 55.375C115.956 55.5316 116.552 55.6099 117.124 55.6099C118.009 55.6099 118.689 55.4703 119.166 55.1912C119.643 54.9052 119.881 54.4729 119.881 53.8942C119.881 53.4585 119.69 53.0874 119.309 52.781C118.935 52.4679 118.199 52.1002 117.103 51.6781C116.061 51.29 115.319 50.953 114.877 50.6671C114.441 50.3743 114.114 50.0441 113.896 49.6765C113.685 49.3088 113.58 48.8697 113.58 48.3591C113.58 47.4467 113.951 46.7285 114.693 46.2042C115.435 45.6732 116.453 45.4077 117.746 45.4077C118.952 45.4077 120.129 45.6528 121.28 46.1429L120.677 47.5216C119.554 47.0587 118.536 46.8272 117.624 46.8272C116.821 46.8272 116.215 46.9531 115.806 47.205C115.398 47.457 115.193 47.8042 115.193 48.2467C115.193 48.5463 115.268 48.8016 115.418 49.0126C115.575 49.2237 115.823 49.4245 116.164 49.6152C116.504 49.8058 117.158 50.0816 118.124 50.4424C119.452 50.9258 120.347 51.4126 120.81 51.9028C121.28 52.393 121.515 53.0091 121.515 53.7512ZM129.011 57.009C127.356 57.009 126.049 56.5052 125.089 55.4976C124.136 54.4899 123.659 53.0908 123.659 51.3002C123.659 49.496 124.102 48.0629 124.987 47.0008C125.879 45.9387 127.074 45.4077 128.572 45.4077C129.974 45.4077 131.084 45.8706 131.901 46.7965C132.718 47.7157 133.126 48.9309 133.126 50.4424V51.5147H125.416C125.45 52.8287 125.78 53.8261 126.407 54.5069C127.04 55.1878 127.928 55.5282 129.072 55.5282C130.277 55.5282 131.469 55.2763 132.646 54.7725V56.2839C132.047 56.5426 131.479 56.7265 130.941 56.8354C130.41 56.9511 129.767 57.009 129.011 57.009ZM128.551 46.8272C127.653 46.8272 126.934 47.1199 126.396 47.7055C125.865 48.291 125.552 49.1012 125.457 50.136H131.309C131.309 49.0671 131.07 48.2501 130.594 47.685C130.117 47.1131 129.436 46.8272 128.551 46.8272ZM137.385 41.8741L137.538 42.0988C137.361 42.7796 137.106 43.5728 136.772 44.4783C136.439 45.377 136.091 46.2144 135.731 46.9906H134.485C134.961 45.0502 135.308 43.3447 135.526 41.8741H137.385ZM141.153 41.8741L141.296 42.0988C141.133 42.7184 140.888 43.4809 140.561 44.3864C140.234 45.2919 139.88 46.16 139.499 46.9906H138.222C138.399 46.3098 138.6 45.4451 138.825 44.3966C139.05 43.3481 139.206 42.5073 139.295 41.8741H141.153Z" fill="white"/>
<path d="M21.7974 15.064L26.4591 19.5287L31.1208 15.064H21.7974Z" fill="#B9C2DD"/>
<path d="M43.8688 21.1501C42.7295 21.1501 41.8626 20.8187 41.268 20.1561C40.6779 19.4889 40.3829 18.5334 40.3829 17.2898C40.3829 16.0234 40.6916 15.0498 41.3089 14.369C41.9307 13.6882 42.8271 13.3478 43.9981 13.3478C44.7924 13.3478 45.5073 13.4953 46.1427 13.7903L45.6594 15.0771C44.9831 14.8138 44.4248 14.6822 43.9845 14.6822C42.6819 14.6822 42.0305 15.5468 42.0305 17.2762C42.0305 18.1204 42.1917 18.7558 42.5139 19.1825C42.8407 19.6046 43.3173 19.8157 43.9437 19.8157C44.6563 19.8157 45.3303 19.6386 45.9657 19.2846V20.6803C45.6798 20.8482 45.3734 20.9685 45.0466 21.0411C44.7244 21.1138 44.3317 21.1501 43.8688 21.1501ZM53.0464 21.0139L52.8217 20.0267H52.74C52.5176 20.3762 52.1999 20.6508 51.7868 20.8505C51.3783 21.0502 50.9108 21.1501 50.3843 21.1501C49.472 21.1501 48.7912 20.9231 48.3418 20.4693C47.8925 20.0154 47.6678 19.3277 47.6678 18.4063V13.4839H49.2814V18.1272C49.2814 18.7036 49.3994 19.1371 49.6354 19.4276C49.8714 19.7135 50.2413 19.8565 50.7452 19.8565C51.4169 19.8565 51.9094 19.6568 52.2226 19.2574C52.5403 18.8534 52.6991 18.1794 52.6991 17.2353V13.4839H54.3059V21.0139H53.0464ZM61.6453 18.8693C61.6453 19.6046 61.3775 20.1697 60.8419 20.5646C60.3063 20.9549 59.5392 21.1501 58.5407 21.1501C57.5376 21.1501 56.7319 20.998 56.1237 20.6939V19.3118C57.0088 19.7203 57.8326 19.9246 58.5951 19.9246C59.5801 19.9246 60.0725 19.6273 60.0725 19.0327C60.0725 18.8421 60.0181 18.6832 59.9091 18.5561C59.8002 18.429 59.6209 18.2974 59.3713 18.1612C59.1216 18.0251 58.7744 17.8707 58.3296 17.6983C57.4627 17.3624 56.8749 17.0265 56.5663 16.6906C56.2622 16.3548 56.1101 15.919 56.1101 15.3835C56.1101 14.7389 56.3688 14.2397 56.8862 13.8856C57.4082 13.5271 58.1163 13.3478 59.0104 13.3478C59.8955 13.3478 60.7329 13.5271 61.5227 13.8856L61.0053 15.0907C60.1928 14.7548 59.5097 14.5869 58.956 14.5869C58.1117 14.5869 57.6896 14.8274 57.6896 15.3086C57.6896 15.5446 57.7986 15.7443 58.0164 15.9077C58.2388 16.0711 58.72 16.2958 59.4598 16.5817C60.0816 16.8223 60.5332 17.0424 60.8146 17.2421C61.096 17.4418 61.3048 17.6733 61.441 17.9366C61.5772 18.1953 61.6453 18.5062 61.6453 18.8693ZM66.1864 19.8565C66.5767 19.8565 66.9671 19.7952 67.3574 19.6727V20.8777C67.1804 20.9549 66.9512 21.0185 66.6698 21.0684C66.3929 21.1228 66.1047 21.1501 65.8051 21.1501C64.2891 21.1501 63.5312 20.3512 63.5312 18.7536V14.6958H62.5031V13.9877L63.606 13.4022L64.1507 11.8091H65.1379V13.4839H67.2825V14.6958H65.1379V18.7263C65.1379 19.1121 65.2332 19.3981 65.4239 19.5842C65.619 19.7657 65.8732 19.8565 66.1864 19.8565ZM75.5478 17.2353C75.5478 18.4653 75.2324 19.4253 74.6014 20.1152C73.9705 20.8051 73.0923 21.1501 71.9666 21.1501C71.2631 21.1501 70.6413 20.9912 70.1012 20.6735C69.561 20.3558 69.1457 19.8996 68.8552 19.305C68.5648 18.7104 68.4195 18.0205 68.4195 17.2353C68.4195 16.0144 68.7327 15.0612 69.3591 14.3758C69.9854 13.6905 70.8682 13.3478 72.0075 13.3478C73.0968 13.3478 73.9592 13.6995 74.5946 14.4031C75.2301 15.102 75.5478 16.0461 75.5478 17.2353ZM70.0671 17.2353C70.0671 18.9737 70.7094 19.8429 71.9939 19.8429C73.2648 19.8429 73.9002 18.9737 73.9002 17.2353C73.9002 15.5151 73.2602 14.655 71.9803 14.655C71.3085 14.655 70.8206 14.8774 70.5165 15.3222C70.2169 15.767 70.0671 16.4047 70.0671 17.2353ZM83.7382 21.0139H82.1314V16.3707C82.1314 15.7942 82.0225 15.3653 81.8046 15.0839C81.5868 14.7979 81.2464 14.655 80.7834 14.655C80.1661 14.655 79.7122 14.8569 79.4217 15.2609C79.1358 15.6603 78.9928 16.3275 78.9928 17.2625V21.0139H77.3929V13.4839H78.6456L78.8703 14.4711H78.952C79.1607 14.1126 79.4626 13.8357 79.8575 13.6405C80.2569 13.4454 80.6949 13.3478 81.1715 13.3478C82.3289 13.3478 83.0959 13.7426 83.4727 14.5324H83.5816C83.804 14.1602 84.1172 13.8697 84.5211 13.6609C84.9251 13.4522 85.3881 13.3478 85.91 13.3478C86.8087 13.3478 87.4623 13.5747 87.8708 14.0286C88.2839 14.4825 88.4904 15.1747 88.4904 16.1051V21.0139H86.8904V16.3707C86.8904 15.7942 86.7792 15.3653 86.5568 15.0839C86.339 14.7979 85.9985 14.655 85.5356 14.655C84.9138 14.655 84.4576 14.8501 84.1671 15.2405C83.8812 15.6263 83.7382 16.2209 83.7382 17.0243V21.0139ZM100.507 19.5093L93.8553 16.5817V15.7579L100.507 12.4355V13.7631L95.5166 16.1051L100.507 18.168V19.5093ZM107.023 21.0139L106.703 19.9654H106.648C106.285 20.4239 105.92 20.737 105.552 20.905C105.184 21.0684 104.712 21.1501 104.136 21.1501C103.396 21.1501 102.817 20.9504 102.4 20.551C101.987 20.1515 101.78 19.5864 101.78 18.8557C101.78 18.0795 102.068 17.494 102.645 17.0991C103.221 16.7043 104.1 16.4887 105.28 16.4524L106.58 16.4115V16.0098C106.58 15.5287 106.467 15.1701 106.24 14.9341C106.017 14.6935 105.67 14.5733 105.198 14.5733C104.812 14.5733 104.442 14.63 104.088 14.7435C103.734 14.8569 103.394 14.9908 103.067 15.1452L102.55 14.0014C102.958 13.788 103.405 13.6269 103.891 13.518C104.376 13.4045 104.835 13.3478 105.266 13.3478C106.224 13.3478 106.945 13.5566 107.431 13.9741C107.921 14.3917 108.166 15.0476 108.166 15.9417V21.0139H107.023ZM104.64 19.9246C105.221 19.9246 105.686 19.7635 106.035 19.4412C106.389 19.1144 106.566 18.6582 106.566 18.0727V17.4191L105.6 17.46C104.846 17.4872 104.297 17.6143 103.952 17.8412C103.612 18.0637 103.441 18.4063 103.441 18.8693C103.441 19.2052 103.541 19.4662 103.741 19.6523C103.941 19.8338 104.24 19.9246 104.64 19.9246ZM109.909 18.168L114.9 16.1051L109.909 13.7631V12.4355L116.561 15.7579V16.5817L109.909 19.5093V18.168ZM126.699 21.0139L126.379 19.9654H126.324C125.961 20.4239 125.596 20.737 125.228 20.905C124.86 21.0684 124.388 21.1501 123.812 21.1501C123.072 21.1501 122.493 20.9504 122.076 20.551C121.663 20.1515 121.456 19.5864 121.456 18.8557C121.456 18.0795 121.744 17.494 122.321 17.0991C122.897 16.7043 123.776 16.4887 124.956 16.4524L126.256 16.4115V16.0098C126.256 15.5287 126.143 15.1701 125.916 14.9341C125.693 14.6935 125.346 14.5733 124.874 14.5733C124.488 14.5733 124.118 14.63 123.764 14.7435C123.41 14.8569 123.07 14.9908 122.743 15.1452L122.226 14.0014C122.634 13.788 123.081 13.6269 123.567 13.518C124.052 13.4045 124.511 13.3478 124.942 13.3478C125.9 13.3478 126.621 13.5566 127.107 13.9741C127.597 14.3917 127.842 15.0476 127.842 15.9417V21.0139H126.699ZM124.316 19.9246C124.897 19.9246 125.362 19.7635 125.711 19.4412C126.065 19.1144 126.242 18.6582 126.242 18.0727V17.4191L125.276 17.46C124.522 17.4872 123.973 17.6143 123.628 17.8412C123.288 18.0637 123.117 18.4063 123.117 18.8693C123.117 19.2052 123.217 19.4662 123.417 19.6523C123.617 19.8338 123.916 19.9246 124.316 19.9246ZM132.881 19.8565C133.271 19.8565 133.661 19.7952 134.052 19.6727V20.8777C133.875 20.9549 133.645 21.0185 133.364 21.0684C133.087 21.1228 132.799 21.1501 132.499 21.1501C130.983 21.1501 130.225 20.3512 130.225 18.7536V14.6958H129.197V13.9877L130.3 13.4022L130.845 11.8091H131.832V13.4839H133.977V14.6958H131.832V18.7263C131.832 19.1121 131.927 19.3981 132.118 19.5842C132.313 19.7657 132.567 19.8565 132.881 19.8565ZM138.368 19.8565C138.758 19.8565 139.149 19.7952 139.539 19.6727V20.8777C139.362 20.9549 139.133 21.0185 138.851 21.0684C138.575 21.1228 138.286 21.1501 137.987 21.1501C136.471 21.1501 135.713 20.3512 135.713 18.7536V14.6958H134.685V13.9877L135.788 13.4022L136.332 11.8091H137.32V13.4839H139.464V14.6958H137.32V18.7263C137.32 19.1121 137.415 19.3981 137.605 19.5842C137.801 19.7657 138.055 19.8565 138.368 19.8565ZM144.87 13.3478C145.192 13.3478 145.458 13.3705 145.667 13.4159L145.51 14.9069C145.283 14.8524 145.047 14.8252 144.802 14.8252C144.162 14.8252 143.642 15.034 143.243 15.4515C142.848 15.8691 142.65 16.4115 142.65 17.0787V21.0139H141.05V13.4839H142.303L142.514 14.8116H142.596C142.846 14.3622 143.17 14.0059 143.57 13.7426C143.974 13.4794 144.407 13.3478 144.87 13.3478ZM148.669 21.0139H147.069V13.4839H148.669V21.0139ZM146.974 11.4891C146.974 11.2032 147.051 10.983 147.205 10.8287C147.364 10.6744 147.589 10.5972 147.879 10.5972C148.161 10.5972 148.378 10.6744 148.533 10.8287C148.692 10.983 148.771 11.2032 148.771 11.4891C148.771 11.7614 148.692 11.977 148.533 12.1359C148.378 12.2902 148.161 12.3674 147.879 12.3674C147.589 12.3674 147.364 12.2902 147.205 12.1359C147.051 11.977 146.974 11.7614 146.974 11.4891ZM154.81 13.3478C155.75 13.3478 156.48 13.6882 157.002 14.369C157.529 15.0498 157.792 16.0053 157.792 17.2353C157.792 18.4699 157.527 19.4321 156.996 20.122C156.464 20.8074 155.727 21.1501 154.783 21.1501C153.83 21.1501 153.09 20.8074 152.563 20.122H152.454L152.162 21.0139H150.963V10.4202H152.563V12.9393C152.563 13.1254 152.554 13.4022 152.536 13.7699C152.518 14.1375 152.504 14.3713 152.495 14.4711H152.563C153.072 13.7222 153.821 13.3478 154.81 13.3478ZM154.395 14.655C153.75 14.655 153.285 14.8456 152.999 15.2269C152.718 15.6036 152.572 16.2368 152.563 17.1264V17.2353C152.563 18.1522 152.709 18.8171 152.999 19.2301C153.29 19.6386 153.764 19.8429 154.422 19.8429C154.989 19.8429 155.418 19.6182 155.709 19.1689C156.004 18.7195 156.151 18.0705 156.151 17.2217C156.151 15.5105 155.566 14.655 154.395 14.655ZM164.961 21.0139L164.737 20.0267H164.655C164.432 20.3762 164.115 20.6508 163.702 20.8505C163.293 21.0502 162.826 21.1501 162.299 21.1501C161.387 21.1501 160.706 20.9231 160.257 20.4693C159.807 20.0154 159.583 19.3277 159.583 18.4063V13.4839H161.196V18.1272C161.196 18.7036 161.314 19.1371 161.55 19.4276C161.786 19.7135 162.156 19.8565 162.66 19.8565C163.332 19.8565 163.824 19.6568 164.137 19.2574C164.455 18.8534 164.614 18.1794 164.614 17.2353V13.4839H166.221V21.0139H164.961ZM171.307 19.8565C171.697 19.8565 172.087 19.7952 172.478 19.6727V20.8777C172.301 20.9549 172.071 21.0185 171.79 21.0684C171.513 21.1228 171.225 21.1501 170.925 21.1501C169.409 21.1501 168.651 20.3512 168.651 18.7536V14.6958H167.623V13.9877L168.726 13.4022L169.271 11.8091H170.258V13.4839H172.403V14.6958H170.258V18.7263C170.258 19.1121 170.353 19.3981 170.544 19.5842C170.739 19.7657 170.993 19.8565 171.307 19.8565ZM177.277 21.1501C176.106 21.1501 175.19 20.8097 174.527 20.1288C173.869 19.4435 173.54 18.5017 173.54 17.3034C173.54 16.0734 173.846 15.1066 174.459 14.4031C175.072 13.6995 175.914 13.3478 176.985 13.3478C177.979 13.3478 178.764 13.6496 179.34 14.2533C179.917 14.8569 180.205 15.6876 180.205 16.7451V17.6098H175.187C175.21 18.3405 175.407 18.9033 175.78 19.2982C176.152 19.6886 176.676 19.8837 177.352 19.8837C177.797 19.8837 178.21 19.8429 178.591 19.7612C178.977 19.6749 179.39 19.5342 179.831 19.3391V20.6395C179.44 20.8256 179.045 20.9572 178.646 21.0343C178.246 21.1115 177.79 21.1501 177.277 21.1501ZM176.985 14.5596C176.476 14.5596 176.068 14.7208 175.759 15.043C175.455 15.3653 175.274 15.8351 175.215 16.4524H178.632C178.623 15.8305 178.473 15.3608 178.183 15.043C177.892 14.7208 177.493 14.5596 176.985 14.5596ZM187.081 18.8693C187.081 19.6046 186.814 20.1697 186.278 20.5646C185.742 20.9549 184.975 21.1501 183.977 21.1501C182.974 21.1501 182.168 20.998 181.56 20.6939V19.3118C182.445 19.7203 183.269 19.9246 184.031 19.9246C185.016 19.9246 185.509 19.6273 185.509 19.0327C185.509 18.8421 185.454 18.6832 185.345 18.5561C185.236 18.429 185.057 18.2974 184.807 18.1612C184.558 18.0251 184.211 17.8707 183.766 17.6983C182.899 17.3624 182.311 17.0265 182.002 16.6906C181.698 16.3548 181.546 15.919 181.546 15.3835C181.546 14.7389 181.805 14.2397 182.322 13.8856C182.844 13.5271 183.552 13.3478 184.447 13.3478C185.332 13.3478 186.169 13.5271 186.959 13.8856L186.441 15.0907C185.629 14.7548 184.946 14.5869 184.392 14.5869C183.548 14.5869 183.126 14.8274 183.126 15.3086C183.126 15.5446 183.235 15.7443 183.453 15.9077C183.675 16.0711 184.156 16.2958 184.896 16.5817C185.518 16.8223 185.969 17.0424 186.251 17.2421C186.532 17.4418 186.741 17.6733 186.877 17.9366C187.013 18.1953 187.081 18.5062 187.081 18.8693Z" fill="#B9C2DD"/>
</g>
<path d="M209.119 101.47L215.033 94.0563C215.22 93.822 215.3 93.5228 215.268 93.218C215.236 92.9249 215.094 92.638 214.86 92.4269L207.404 85.7165C206.935 85.2943 206.236 85.3329 205.862 85.8016C205.548 86.1963 205.553 86.7738 205.845 87.2057L211.301 92.1164C193.758 92.401 178.071 78.2918 175.456 59.8528C175.454 59.8294 175.451 59.8059 175.449 59.7825C175.353 59.0921 174.75 58.5712 174.096 58.6073C173.408 58.6453 172.919 59.2854 173.018 60.011C174.357 69.6297 179.024 78.4397 186.244 84.9391C193.465 91.4384 202.423 94.8705 211.576 94.6953L207.383 99.9499C206.99 100.443 207.094 101.216 207.618 101.623C208.095 102.021 208.754 101.926 209.119 101.47Z" fill="#6CE2FF"/>
<defs>
<clipPath id="clip0">
<path d="M0 9.5756C0 4.28715 4.28714 0 9.57559 0H205.875C211.164 0 215.451 4.28714 215.451 9.57559V64.6352C215.451 69.9237 211.164 74.2108 205.875 74.2108H9.5756C4.28715 74.2108 0 69.9237 0 64.6352V9.5756Z" fill="white"/>
</clipPath>
</defs>
</svg>
